Coordinates
version=1
nRows=14
nColumns=24
inDegrees=yes

Units are S.I. units (second, meters, Newtons, ...)
Angles are in degrees.

endheader
time	pelvis_tilt	pelvis_list	pelvis_rotation	pelvis_tx	pelvis_ty	pelvis_tz	hip_flexion_r	hip_adduction_r	hip_rotation_r	knee_angle_r	ankle_angle_r	subtalar_angle_r	mtp_angle_r	hip_flexion_l	hip_adduction_l	hip_rotation_l	knee_angle_l	ankle_angle_l	subtalar_angle_l	mtp_angle_l	lumbar_extension	lumbar_bending	lumbar_rotation
      0.25400000	     -2.12667487	      2.44027547	     -0.04142419	     -0.78214043	      1.04656654	      0.30252703	     26.49641485	     -1.70202552	     -3.58762753	     -2.60492679	      8.55673847	     -0.95032189	      9.97667217	    -16.75124019	      3.23400154	      1.88268924	     -4.99499170	     15.07014471	      5.70984118	      6.22801078	    -14.59272974	      0.26000179	     -5.26448817
      0.25816667	     -2.10309703	      2.41461485	      0.01184209	     -0.77605983	      1.04571690	      0.30272521	     26.52986055	     -1.64372228	     -3.35686788	     -3.07642685	      8.44691651	     -1.26805503	      9.96524195	    -16.87774737	      3.16637170	      1.84907879	     -5.52387343	     15.19496816	      5.93625993	      6.28730939	    -14.59277055	      0.40781040	     -5.29024094
      0.26233333	     -2.06277425	      2.37180505	      0.07055286	     -0.76992672	      1.04493229	      0.30290757	     26.53091005	     -1.57115555	     -3.14388614	     -3.57780506	      8.30246018	     -1.59583364	      9.95922147	    -17.00797335	      3.07839918	      1.79895396	     -6.08436294	     15.31194738	      6.18216380	      6.38234103	    -14.61046336	      0.58554671	     -5.28835160
      0.26650000	     -2.03289066	      2.32679363	      0.13318545	     -0.76375750	      1.04416576	      0.30309709	     26.53653339	     -1.49669350	     -2.93770428	     -4.11561573	      8.11633254	     -1.94030290	      9.95840878	    -17.10764424	      2.98584216	      1.74163173	     -6.68955712	     15.40535433	      6.42726477	      6.50834269	    -14.60974124	      0.76769490	     -5.29270709
      0.27066667	     -2.00191172	      2.27124353	      0.19801272	     -0.75750929	      1.04344798	      0.30328843	     26.52497801	     -1.41185633	     -2.74834023	     -4.66843118	      7.87820507	     -2.29966683	      9.96464935	    -17.20418643	      2.88112729	      1.68732240	     -7.30210623	     15.46783295	      6.66082099	      6.66518587	    -14.60082996	      0.96421772	     -5.29344992
      0.27483333	     -1.96153507	      2.22434066	      0.26059495	     -0.75125220	      1.04278675	      0.30347093	     26.52700208	     -1.34192701	     -2.67546400	     -5.30647654	      7.70146906	     -2.43755765	      9.96349589	    -17.31919350	      2.79601105	      1.76680772	     -7.89890882	     15.42148359	      6.64610089	      6.69042470	    -14.62377164	      1.14788435	     -5.26907314
      0.27900000	     -1.93098461	      2.14267745	      0.33565687	     -0.74490233	      1.04216070	      0.30369343	     26.45855934	     -1.22631981	     -2.40756804	     -5.81122607	      7.25560843	     -3.05683290	      9.97728950	    -17.35430242	      2.64786829	      1.56733097	     -8.63772254	     15.51343310	      7.10109987	      6.91854212	    -14.58202216	      1.38769497	     -5.29184316
      0.28316667	     -1.88335568	      2.06276240	      0.40713607	     -0.73854262	      1.04160468	      0.30389862	     26.39654491	     -1.12013498	     -2.27546454	     -6.39249102	      6.87389453	     -3.43331507	     10.00402103	    -17.40751050	      2.50846206	      1.44226610	     -9.37880810	     15.50941826	      7.39644865	      7.21599427	    -14.58547339	      1.61897161	     -5.26335016
      0.28733333	     -1.82729175	      1.97208243	      0.47356841	     -0.73213938	      1.04111061	      0.30410110	     26.32773806	     -1.00797694	     -2.22708789	     -6.99795518	      6.46190742	     -3.65065920	     10.23331470	    -17.44485234	      2.35489942	      1.24791387	    -10.16516457	     15.45592520	      7.73018003	      9.14938275	    -14.59947604	      1.86098316	     -5.16468525
      0.29150000	     -1.83937243	      1.90812020	      0.56909252	     -0.72569985	      1.04059310	      0.30430657	     26.31361938	     -0.92732061	     -2.11526186	     -7.59175666	      6.00139989	     -4.10761258	     10.23192385	    -17.40856476	      2.23425810	      1.27622623	    -10.94493430	     15.32608019	      7.78089844	      9.26835733	    -14.50523167	      2.08252196	     -5.23705052
      0.29566667	     -1.78329631	      1.82211996	      0.64460598	     -0.71927123	      1.04021757	      0.30455006	     26.22350189	     -0.81987716	     -2.03614093	     -8.18261609	      5.47824785	     -4.49175367	     10.23970711	    -17.40835503	      2.07887713	      1.10914934	    -11.79703761	     15.21429052	      8.08496663	      9.52623342	    -14.51947279	      2.31433419	     -5.19590121
      0.29983333	     -1.75405644	      1.71424713	      0.72966611	     -0.71277419	      1.03986550	      0.30476127	     26.15469826	     -0.69993007	     -2.01212752	     -8.77949120	      4.98164797	     -4.82688742	     10.24435627	    -17.35624000	      1.90081240	      0.96268143	    -12.69746639	     15.05167324	      8.30680683	      9.77284047	    -14.47461414	      2.59557889	     -5.16626113
      0.30400000	     -1.72444211	      1.61263998	      0.81256876	     -0.70628323	      1.03957185	      0.30499358	     26.09176301	     -0.58840981	     -2.00323909	     -9.39635695	      4.45364751	     -5.14140621	     10.24811041	    -17.27245215	      1.72388213	      0.78042669	    -13.64992515	     14.85534811	      8.58525666	     10.09929564	    -14.44340489	      2.85664553	     -5.11959282
      0.30816667	     -1.71046500	      1.51304443	      0.89326916	     -0.69977565	      1.03931854	      0.30524957	     26.04877804	     -0.48104355	     -2.02099424	    -10.02734753	      3.94328869	     -5.42671239	     10.24843037	    -17.14651317	      1.54718698	      0.59770530	    -14.64688665	     14.60422109	      8.82605746	     10.48666692	    -14.38510030	      3.11576097	     -5.07494969
